<svg xmlns="http://www.w3.org/2000/svg" xmlns:xlink="http://www.w3.org/1999/xlink" width="1000" zoomAndPan="magnify" viewBox="0 0 750 749.999995" height="1000" preserveAspectRatio="xMidYMid meet" version="1.0"><path fill="#000000" d="M 239.703125 69.472656 C 235.941406 71.582031 230.246094 74.035156 227.039062 74.921875 C 219.945312 76.890625 213.15625 80.742188 211.003906 84.023438 C 209.070312 86.980469 208.949219 92.007812 210.714844 96.261719 C 211.792969 98.867188 213.238281 99.96875 219.050781 102.617188 C 226.761719 106.128906 227.453125 106.777344 227.472656 110.53125 C 227.480469 112.0625 228.230469 113.542969 229.34375 114.242188 C 232.222656 116.039062 231.59375 117.519531 226.652344 120.558594 C 221.664062 123.628906 218.546875 128.644531 219.546875 132.003906 C 219.878906 133.105469 220.476562 139.023438 220.882812 145.160156 C 221.453125 153.78125 222.085938 157.214844 223.664062 160.296875 C 226.140625 165.136719 230.402344 167.914062 235.386719 167.9375 C 239.847656 167.957031 240.953125 168.589844 241.890625 171.644531 C 242.871094 174.820312 243.917969 175.332031 249.503906 175.347656 C 257.484375 175.371094 256.398438 177.707031 246.730469 181.316406 C 240.523438 183.636719 239.066406 186.210938 239.359375 194.359375 C 239.628906 201.933594 238.777344 203.683594 231.882812 209.753906 C 228.410156 212.808594 227.355469 214.433594 226.871094 217.453125 C 226.222656 221.5 224.101562 224.101562 219.402344 226.605469 C 217.277344 227.738281 216.023438 229.523438 214.511719 233.574219 C 211.164062 242.527344 209.351562 244.726562 202.1875 248.488281 C 197.050781 251.1875 195.042969 252.875 193.027344 256.171875 C 188.183594 264.105469 186.816406 265.289062 178.996094 268.304688 C 169.546875 271.949219 167.191406 272.042969 164.046875 268.898438 C 159.855469 264.707031 152.460938 265.949219 148.542969 271.503906 C 147.804688 272.550781 145.34375 275.289062 143.074219 277.589844 C 132.996094 287.804688 133.429688 298.136719 143.996094 299.539062 C 146.492188 299.867188 148.730469 300.457031 148.972656 300.847656 C 149.210938 301.238281 148.785156 303.324219 148.019531 305.488281 C 144.96875 314.144531 146.851562 319.664062 153.425781 321.324219 L 157.320312 322.304688 L 157.445312 327.132812 C 157.523438 330.085938 158.515625 334.074219 160.003906 337.417969 C 162.882812 343.882812 163 345.558594 160.734375 347.613281 C 158.628906 349.515625 157.417969 349.550781 155.925781 347.757812 C 154.597656 346.15625 148.667969 345.90625 143.960938 347.257812 C 141.625 347.929688 139.988281 347.800781 137.46875 346.746094 C 131.464844 344.238281 126.324219 343.464844 122.492188 344.496094 C 119.210938 345.378906 118.578125 346.136719 114.511719 354.011719 C 108.980469 364.71875 108.585938 368.976562 112.710938 373.371094 C 118.621094 379.667969 129.960938 381.910156 138.984375 378.570312 C 143.25 376.992188 145.238281 377.261719 146.113281 379.542969 C 147.503906 383.167969 140.496094 385.394531 127.679688 385.394531 C 118.691406 385.394531 116.894531 386.554688 116.894531 392.355469 C 116.894531 395.480469 117.554688 396.546875 122.3125 401.109375 C 125.292969 403.96875 129.679688 407.898438 132.066406 409.847656 C 134.453125 411.800781 138.121094 416.296875 140.234375 419.851562 C 144.347656 426.773438 148.148438 430.578125 151.898438 431.519531 C 155.609375 432.449219 164.289062 431.296875 170.113281 429.09375 C 180.027344 425.351562 184.179688 419.800781 185.335938 408.75 C 186.222656 400.265625 190.265625 394.738281 193.578125 397.488281 C 195.460938 399.046875 195.3125 402.070312 193.121094 406.902344 C 190.679688 412.28125 190.777344 416.394531 193.554688 425.089844 C 196.519531 434.375 196.460938 437.121094 193.101562 446.730469 C 189.109375 458.144531 189.328125 465.378906 194.527344 493.8125 C 195.757812 500.539062 197.601562 512.300781 198.621094 519.953125 C 201.761719 543.507812 202.300781 545.109375 213.960938 565.660156 C 224.277344 583.839844 227.867188 593.398438 229.378906 606.699219 C 230.789062 619.144531 232.757812 624.894531 239.253906 635.535156 C 245.652344 646.027344 253.519531 662.457031 256.082031 670.703125 C 257.117188 674.027344 259.085938 681.671875 260.460938 687.699219 C 263.152344 699.492188 264.765625 702.414062 273.832031 711.933594 C 281.226562 719.703125 287.976562 721.648438 294.878906 718.003906 C 300.511719 715.027344 302.625 712.660156 306.085938 705.472656 C 310.027344 697.28125 311.519531 695.917969 317.601562 694.953125 C 324.382812 693.882812 326.386719 691.515625 328.1875 682.449219 C 329.882812 673.910156 331.5625 670.929688 335.070312 670.21875 C 342.910156 668.636719 344.339844 666.933594 345.253906 658.074219 C 345.621094 654.519531 345.273438 651.289062 344.117188 647.464844 L 342.453125 641.96875 L 344.765625 637.515625 C 346.035156 635.070312 348.414062 630.691406 350.046875 627.785156 C 353.625 621.429688 355.699219 612.300781 355.714844 602.863281 C 355.726562 595.722656 355.421875 593.464844 351.941406 574.980469 C 348.351562 555.941406 348.546875 554.234375 355.050781 547.375 L 357.875 544.398438 L 360.183594 546.214844 C 361.453125 547.214844 363.425781 548.03125 364.566406 548.03125 C 367.273438 548.03125 371.535156 544.640625 371.535156 542.488281 C 371.535156 539.507812 374.59375 537.1875 383.128906 533.691406 C 394.050781 529.21875 397.03125 526.867188 398.898438 521.242188 C 400.671875 515.898438 403.007812 513.605469 412.761719 507.632812 C 421.171875 502.484375 446.394531 477.890625 453.210938 468.1875 C 456.070312 464.117188 458.660156 461.652344 461.90625 459.90625 C 475.53125 452.578125 483.550781 446.316406 486.5 440.691406 C 487.304688 439.15625 488.949219 436.90625 490.15625 435.683594 C 492.554688 433.261719 492.921875 430.058594 491.324219 425.472656 C 490.027344 421.753906 490.886719 416.988281 493.328125 414.367188 C 494.707031 412.886719 496.300781 412.347656 499.285156 412.347656 C 503.960938 412.347656 508.488281 409.246094 509.460938 405.378906 C 510.289062 402.070312 511.410156 402.480469 513.902344 406.992188 C 515.097656 409.160156 516.785156 411.066406 517.65625 411.234375 C 518.523438 411.402344 521.8125 410.601562 524.960938 409.453125 C 532.484375 406.710938 534.5 403.75 533.667969 396.667969 C 533.34375 393.921875 532.488281 390 531.769531 387.953125 C 531.046875 385.90625 530.453125 382.011719 530.453125 379.296875 C 530.453125 373.152344 529.28125 369.957031 525.628906 366.175781 C 523.289062 363.75 522.894531 362.746094 523.429688 360.597656 C 525.199219 353.484375 525.132812 351.863281 522.980469 349.570312 C 521.816406 348.332031 519.363281 347.066406 517.527344 346.761719 C 515.691406 346.453125 513.457031 346 512.5625 345.753906 C 508.105469 344.53125 513.609375 335.355469 520.046875 333.289062 C 524.675781 331.804688 526.742188 329.832031 526.707031 326.933594 C 526.660156 323.082031 524.589844 321.320312 517.84375 319.390625 C 514.371094 318.398438 511.097656 317.152344 510.566406 316.621094 C 509.898438 315.953125 510.566406 313.871094 512.738281 309.867188 C 514.464844 306.683594 516 303.925781 516.148438 303.738281 C 516.292969 303.550781 517.847656 304.285156 519.59375 305.363281 C 521.34375 306.445312 523.355469 307.328125 524.066406 307.328125 C 524.777344 307.328125 525.890625 308.183594 526.542969 309.222656 C 528.445312 312.269531 531.882812 313.109375 535.773438 311.484375 C 540.476562 309.519531 541.289062 310.667969 539.742188 317.109375 C 538.183594 323.605469 539.140625 326.765625 543.292969 328.84375 C 547.355469 330.878906 571.652344 331.054688 578.984375 329.101562 C 584.574219 327.617188 588.886719 327.433594 590.738281 328.609375 C 591.765625 329.257812 591.628906 329.796875 590.03125 331.390625 C 588.410156 333.015625 588.164062 334.039062 588.652344 337.101562 C 589.398438 341.777344 587.738281 343.847656 581.609375 345.882812 C 576.140625 347.699219 572.375 351.53125 571.648438 356.019531 C 570.792969 361.28125 575.027344 371.296875 579.6875 375.039062 C 584.058594 378.554688 585.59375 378.667969 588.570312 375.691406 C 590.5 373.757812 590.761719 372.820312 590.3125 369.417969 C 589.945312 366.613281 590.207031 364.855469 591.191406 363.554688 C 593.28125 360.789062 594.457031 362.640625 595.402344 370.179688 C 595.855469 373.769531 596.886719 377.988281 597.695312 379.550781 C 598.503906 381.117188 599.445312 385.894531 599.785156 390.167969 C 600.125 394.445312 600.820312 398.464844 601.324219 399.101562 C 602.855469 401.039062 605.441406 400.414062 607.878906 397.519531 C 609.148438 396.007812 611.289062 394.496094 612.640625 394.15625 C 614.066406 393.796875 615.710938 392.339844 616.578125 390.667969 C 617.839844 388.222656 617.902344 386.929688 617.003906 382.039062 C 615.875 375.917969 616.15625 374.3125 619.046875 370.347656 C 620.585938 368.238281 620.761719 367.0625 620.160156 362.910156 C 619.769531 360.199219 619.394531 356.722656 619.328125 355.191406 L 619.207031 352.402344 L 625.246094 352.15625 C 634.394531 351.785156 636.148438 350.351562 637.824219 341.878906 C 638.160156 340.183594 639.652344 336.113281 641.136719 332.839844 C 644.332031 325.789062 644.488281 323.28125 641.933594 320.035156 L 640.035156 317.621094 L 642.992188 314.566406 C 648.625 308.746094 650.882812 300.167969 648.460938 293.800781 C 647.25 290.617188 648.449219 289.089844 654.027344 286.699219 C 656.324219 285.710938 660.765625 282.445312 663.898438 279.441406 C 670.40625 273.191406 673.066406 272.152344 677.144531 274.261719 C 680.527344 276.011719 683.929688 276.15625 685.46875 274.617188 C 686.996094 273.089844 686.820312 268.222656 685.160156 266.027344 C 683.265625 263.523438 683.457031 260.191406 685.65625 257.398438 C 688.175781 254.195312 687.992188 251.347656 685.042969 247.84375 C 681.910156 244.125 679.015625 242.996094 672.875 243.105469 C 667.652344 243.203125 667.496094 243.09375 668.949219 240.375 C 670.242188 237.957031 667.753906 232.058594 665.148438 231.375 C 663.738281 231.007812 663.335938 230.347656 663.691406 228.984375 C 664.460938 226.054688 662.71875 223.839844 658.8125 222.789062 C 653.652344 221.398438 650.082031 222.457031 646.0625 226.574219 C 642.09375 230.636719 638.757812 231.226562 633.78125 228.746094 C 631.097656 227.40625 630.570312 227.429688 626.898438 229.054688 C 622.84375 230.847656 616.882812 236.714844 616.882812 238.910156 C 616.882812 240.878906 613.933594 242.949219 609.449219 244.136719 C 604.183594 245.53125 603.230469 246.332031 600.882812 251.328125 C 599.542969 254.179688 597.890625 255.929688 595.28125 257.261719 C 592.632812 258.609375 591.183594 260.167969 590.171875 262.746094 C 588.539062 266.898438 585.8125 267.9375 579.148438 266.9375 C 573.621094 266.109375 571.804688 266.84375 570.003906 270.644531 C 567.640625 275.617188 570.574219 279.449219 576.746094 279.449219 C 579.859375 279.449219 581.421875 280.914062 581.785156 284.171875 C 582 286.117188 581.632812 286.429688 579.050781 286.511719 C 577.410156 286.5625 573.703125 287.347656 570.808594 288.257812 C 566.746094 289.539062 564.257812 289.753906 559.851562 289.203125 C 551.800781 288.199219 549.628906 288.40625 545.402344 290.558594 C 542.765625 291.90625 539.890625 292.460938 535.542969 292.460938 C 526.632812 292.460938 523.035156 290.074219 523.222656 284.292969 C 523.277344 282.613281 522.835938 280.753906 522.242188 280.15625 C 521.648438 279.5625 521.160156 276.84375 521.160156 274.109375 C 521.160156 265.949219 516.296875 262.703125 508.773438 265.847656 C 504.394531 267.675781 502.238281 271.390625 502.953125 275.871094 C 503.339844 278.28125 503.0625 280.394531 502.125 282.210938 C 500.234375 285.863281 500.347656 288.269531 502.632812 292.84375 C 506.386719 300.359375 502.03125 303.660156 490.707031 301.871094 C 488.035156 301.449219 482.804688 301.296875 479.074219 301.539062 C 473.074219 301.921875 471.46875 301.640625 465.0625 299.074219 C 459.84375 296.984375 456.308594 296.175781 452.386719 296.175781 C 446.207031 296.175781 445.332031 295.578125 441.660156 288.832031 C 437.851562 281.832031 434.800781 281.117188 419.476562 283.628906 C 410.027344 285.175781 408.027344 284.898438 402.183594 281.234375 C 399.871094 279.78125 395.289062 277.96875 392 277.203125 C 388.710938 276.433594 384.957031 274.945312 383.65625 273.894531 C 376.46875 268.074219 373.636719 266.359375 368.246094 264.566406 C 359.542969 261.671875 351.332031 257.476562 350.191406 255.34375 C 348.484375 252.15625 352.921875 242.964844 359.449219 236.167969 C 364.304688 231.109375 365.03125 229.886719 365.03125 226.761719 C 365.03125 222.261719 363.160156 219.546875 358.378906 217.109375 C 356.324219 216.058594 352.691406 213.800781 350.308594 212.09375 C 347.925781 210.382812 344.449219 208.699219 342.578125 208.351562 C 340.222656 207.910156 338.335938 206.667969 336.4375 204.300781 C 332.585938 199.507812 327.496094 196.863281 325.058594 198.386719 C 323.273438 199.5 323.210938 199.292969 323.210938 192.53125 C 323.210938 185.46875 321.75 180.226562 318.902344 177.082031 C 316.09375 173.980469 320.003906 172.191406 323.621094 174.925781 C 325.949219 176.6875 328.164062 176.652344 331.851562 174.789062 C 338.824219 171.265625 340.273438 168.132812 337.691406 162.152344 C 336.828125 160.125 336.007812 158.082031 335.230469 156.019531 C 334.472656 153.972656 332.972656 152.417969 330.753906 151.371094 C 327.246094 149.722656 326.386719 147.902344 327.332031 144.132812 C 327.742188 142.496094 329.335938 141.230469 333.027344 139.59375 C 337.636719 137.558594 338.378906 136.816406 340.417969 132.203125 C 341.664062 129.382812 343.570312 126.191406 344.652344 125.109375 C 345.734375 124.03125 347.625 121.660156 348.855469 119.847656 C 353.46875 113.050781 351.03125 100.753906 344.585938 98.316406 C 334.675781 94.570312 324.609375 94.875 314.691406 99.226562 C 311.28125 100.71875 307.097656 101.941406 305.394531 101.9375 C 301.53125 101.929688 295.328125 100.257812 295.328125 99.222656 C 295.328125 98.792969 293.375 97.175781 290.984375 95.621094 C 288.097656 93.742188 286.304688 91.773438 285.640625 89.753906 C 284.929688 87.585938 283 85.617188 278.933594 82.894531 C 275.792969 80.792969 270.910156 76.964844 268.082031 74.378906 C 262.78125 69.535156 256.757812 66.714844 250.257812 66.03125 C 247.203125 65.710938 245.316406 66.324219 239.703125 69.472656 M 242.820312 73.179688 C 239.753906 74.808594 236.828125 76.472656 236.316406 76.878906 C 235.804688 77.285156 232.667969 78.308594 229.34375 79.160156 C 218.242188 82 212.894531 86.484375 214.203125 91.855469 C 215.03125 95.253906 217.039062 97.027344 222.101562 98.851562 C 227.847656 100.914062 231.0625 103.789062 231.808594 107.523438 C 232.429688 110.636719 234.871094 112.484375 237.183594 111.597656 C 239.898438 110.554688 245.019531 112.210938 248.765625 115.339844 C 250.8125 117.050781 253.945312 118.722656 255.730469 119.054688 C 260.148438 119.882812 263.730469 124.246094 263.730469 128.792969 C 263.730469 132.65625 265.023438 134.15625 274.234375 140.988281 C 279.695312 145.042969 284.175781 151.195312 284.175781 154.648438 C 284.175781 156.972656 291.527344 163.917969 294.878906 164.761719 C 296.222656 165.097656 298.359375 164.902344 299.625 164.328125 C 303.382812 162.613281 305.523438 163.082031 307.1875 165.980469 C 308.925781 169.011719 312.289062 169.953125 318.441406 169.128906 C 321.144531 168.765625 322.941406 169.074219 324.667969 170.207031 C 326.695312 171.535156 327.539062 171.617188 329.769531 170.691406 C 334.117188 168.890625 334.859375 167.414062 333.148438 163.953125 C 332.335938 162.304688 331.445312 159.859375 331.167969 158.519531 C 330.800781 156.734375 329.933594 155.9375 327.910156 155.53125 C 324.132812 154.777344 321.917969 150.394531 322.539062 144.898438 C 323.089844 140.003906 325.320312 137.460938 330.855469 135.425781 C 334.242188 134.175781 335.03125 133.367188 336.21875 129.921875 C 336.988281 127.699219 339.601562 123.605469 342.027344 120.828125 C 346.097656 116.171875 346.445312 115.390625 346.445312 110.878906 C 346.445312 104.742188 344.453125 102.710938 336.859375 101.082031 C 329.953125 99.601562 323.554688 100.449219 315.617188 103.898438 C 306.292969 107.949219 296.867188 107.230469 291.148438 102.027344 C 289.613281 100.632812 287.175781 98.753906 285.726562 97.855469 C 284.277344 96.957031 282.515625 94.839844 281.808594 93.152344 C 280.605469 90.269531 275.632812 85.214844 274 85.214844 C 273.589844 85.214844 270.332031 82.601562 266.757812 79.40625 C 260.769531 74.054688 256.757812 71.871094 250.71875 70.675781 C 249.207031 70.378906 246.449219 71.253906 242.820312 73.179688 M 235.875 117.695312 C 234.847656 119.710938 232.125 122.65625 229.828125 124.234375 C 224.519531 127.886719 223.578125 129.628906 224.730469 133.648438 C 225.222656 135.371094 225.628906 140.082031 225.628906 144.113281 C 225.628906 152.089844 226.75 157.054688 229.328125 160.472656 C 230.621094 162.183594 232.253906 162.816406 236.726562 163.34375 C 242.765625 164.054688 246.074219 166.050781 246.074219 168.984375 C 246.074219 170.410156 246.796875 170.664062 250.574219 170.582031 C 253.355469 170.515625 255.972656 171.070312 257.429688 172.023438 C 259.699219 173.511719 259.90625 173.476562 262.691406 171.132812 C 264.328125 169.75 265.589844 167.796875 265.589844 166.632812 C 265.589844 163.316406 271.273438 158.546875 276.355469 157.597656 C 281.730469 156.59375 281.769531 156.558594 280.96875 153.363281 C 280.246094 150.484375 274.25 144.367188 266.269531 138.367188 C 261.621094 134.871094 260.945312 133.960938 260.945312 131.207031 C 260.945312 125.511719 257.652344 121.460938 253.03125 121.460938 C 252.308594 121.460938 250.300781 120.21875 248.578125 118.703125 C 245.433594 115.945312 241.53125 114.023438 239.0625 114.023438 C 238.339844 114.023438 236.90625 115.675781 235.875 117.695312 M 276.511719 160.453125 C 269.917969 161.734375 266.246094 168.019531 268.941406 173.421875 C 270.136719 175.816406 270.113281 176.484375 268.742188 179.359375 C 266.121094 184.855469 267.476562 187.347656 278.25 196.886719 C 279.789062 198.246094 281.558594 201.066406 282.183594 203.160156 C 282.882812 205.492188 283.882812 206.960938 284.769531 206.960938 C 287.636719 206.960938 291.476562 210.125 292.851562 213.617188 C 293.964844 216.453125 294.738281 217.183594 296.617188 217.183594 C 299.351562 217.183594 300.425781 215.535156 301.359375 209.886719 C 301.757812 207.472656 303.085938 204.660156 304.648438 202.914062 C 307.085938 200.195312 307.664062 200 312.914062 200.152344 L 318.5625 200.3125 L 318.5625 192.699219 C 318.5625 185.984375 318.269531 184.65625 316.085938 181.441406 C 314.722656 179.4375 313.351562 176.515625 313.035156 174.953125 C 312.554688 172.589844 311.960938 172.0625 309.515625 171.820312 C 307.636719 171.636719 306.375 170.914062 306.027344 169.816406 C 305.160156 167.085938 302.894531 165.566406 301.609375 166.851562 C 300.234375 168.226562 294.882812 168.242188 292.246094 166.875 C 291.132812 166.296875 288.472656 164.414062 286.34375 162.691406 C 282.285156 159.414062 282.09375 159.371094 276.511719 160.453125 M 263.097656 174.699219 C 261.984375 175.316406 260.085938 177.289062 258.882812 179.078125 C 257.386719 181.300781 255.121094 182.960938 251.734375 184.3125 C 243.902344 187.445312 243.40625 188.132812 243.964844 195.074219 C 244.558594 202.472656 243.109375 205.785156 236.726562 211.605469 C 233.121094 214.898438 231.878906 216.808594 230.902344 220.582031 L 229.660156 225.378906 L 232.40625 225.925781 C 233.917969 226.230469 237.183594 226.476562 239.667969 226.476562 C 245.546875 226.476562 251.128906 228.769531 253.917969 232.332031 C 256.0625 235.074219 256.289062 235.144531 259.707031 234.097656 C 262.1875 233.355469 264.679688 232.671875 267.1875 232.039062 C 270.035156 231.332031 271.945312 230.023438 274.15625 227.253906 C 275.835938 225.152344 278.292969 222.34375 279.621094 221.007812 C 283.296875 217.3125 283.402344 215.929688 280.667969 207.722656 C 278.382812 200.875 277.707031 199.828125 273.703125 196.941406 C 271.261719 195.183594 268.1875 191.902344 266.863281 189.644531 C 264.433594 185.496094 264.402344 184.957031 266.117188 176.523438 C 266.777344 173.265625 266.246094 172.945312 263.097656 174.699219 M 307.054688 204.445312 C 305.753906 205.746094 304.5625 208.359375 304.175781 210.761719 C 303.8125 213.015625 302.871094 215.871094 302.085938 217.105469 C 300.738281 219.226562 300.796875 219.449219 303.105469 221.132812 C 305.90625 223.171875 306.28125 226.355469 304.117188 229.664062 C 302.648438 231.90625 303.027344 236.179688 304.792969 237.269531 C 305.289062 237.574219 306.625 236.941406 307.769531 235.867188 C 311.1875 232.65625 315.398438 233.476562 320.652344 238.378906 C 322.210938 239.832031 323.210938 241.734375 323.210938 243.25 C 323.210938 248.125 333.636719 255.285156 340.734375 255.285156 C 344.109375 255.285156 344.417969 255.0625 344.945312 252.265625 C 346.046875 246.402344 350.929688 237.742188 355.683594 233.207031 C 360.128906 228.964844 361.226562 226.4375 359.671875 224.023438 C 359.296875 223.441406 356.394531 221.445312 353.222656 219.589844 C 350.054688 217.734375 347.210938 215.816406 346.910156 215.328125 C 346.609375 214.839844 344.1875 213.800781 341.523438 213.015625 C 337.957031 211.960938 335.648438 210.464844 332.742188 207.3125 C 329.757812 204.078125 328.402344 203.210938 327.167969 203.757812 C 325.085938 204.671875 320.867188 204.40625 312.429688 202.820312 C 309.863281 202.339844 308.851562 202.644531 307.054688 204.445312 M 285.523438 215 C 285.566406 219.546875 285.285156 220.324219 282.996094 221.992188 C 281.582031 223.023438 279.160156 225.710938 277.609375 227.960938 C 274.25 232.84375 272.066406 234.042969 262.523438 236.25 L 255.277344 237.925781 L 251.359375 234.082031 C 249.175781 231.9375 246.132812 229.972656 244.496094 229.644531 C 241.714844 229.089844 241.515625 229.238281 240.949219 232.265625 C 240.113281 236.71875 240.703125 240.554688 242.355469 241.4375 C 243.125 241.847656 245.816406 242.449219 248.339844 242.777344 C 254.390625 243.558594 259.085938 247.933594 259.085938 252.78125 C 259.085938 255.144531 259.980469 257.109375 262.335938 259.933594 C 264.957031 263.066406 265.589844 264.613281 265.589844 267.851562 C 265.589844 272.074219 267.660156 275.332031 269.617188 274.179688 C 270.210938 273.828125 271.996094 272.570312 273.578125 271.382812 C 275.160156 270.195312 277.597656 269.226562 278.996094 269.226562 C 281.097656 269.226562 281.789062 269.867188 283 272.945312 C 284.640625 277.121094 286.230469 277.558594 290.960938 275.136719 C 294.414062 273.367188 295.300781 272.257812 295.300781 269.691406 C 295.300781 266.4375 293.851562 265.304688 289.484375 265.160156 C 282.917969 264.9375 279.289062 260.347656 281.363281 254.886719 C 282 253.207031 282.957031 252.496094 284.574219 252.496094 C 288 252.496094 288.660156 250.378906 287.367188 243.5 C 285.949219 235.960938 286.660156 233.273438 291.554688 227.714844 C 295.792969 222.898438 296.210938 220.96875 293.402344 219.214844 C 292.34375 218.550781 290.878906 216.585938 290.152344 214.839844 C 289.421875 213.097656 288.074219 211.269531 287.152344 210.777344 C 285.628906 209.960938 285.480469 210.347656 285.523438 215 M 298.117188 223.136719 C 298.117188 223.835938 296.234375 226.691406 293.933594 229.484375 C 289.152344 235.292969 288.914062 236.898438 291.226562 247.851562 C 292.03125 251.683594 292.925781 256.285156 293.207031 258.074219 C 293.488281 259.863281 294.75 262.5625 296.015625 264.070312 C 297.898438 266.316406 298.222656 267.488281 297.808594 270.566406 C 297.507812 272.816406 296.511719 274.960938 295.328125 275.917969 L 293.351562 277.519531 L 295.847656 281.78125 C 298.015625 285.480469 298.261719 286.664062 297.71875 290.757812 L 297.09375 295.472656 L 301.40625 294.828125 C 304.578125 294.351562 306.125 294.535156 307.261719 295.527344 C 308.109375 296.265625 311.941406 297.320312 315.773438 297.871094 C 321.730469 298.726562 323.117188 299.285156 325.300781 301.722656 C 328.917969 305.757812 328.972656 309.398438 325.523438 317.199219 C 323.976562 320.699219 322.300781 322.75 319.59375 324.457031 C 314.492188 327.679688 312.796875 330.578125 311.453125 338.371094 C 310.109375 346.148438 310.539062 348.722656 313.746094 352.171875 C 316.074219 354.671875 319.402344 355.414062 322.667969 354.160156 C 325.179688 353.199219 324.378906 348.78125 320.894531 344.402344 C 316.660156 339.070312 316.335938 333.578125 320.082031 330.632812 C 323.539062 327.910156 325.464844 328.21875 328.570312 331.992188 C 332.339844 336.5625 336.757812 337.242188 341.105469 333.925781 C 345.828125 330.324219 349.710938 330.621094 352.15625 334.769531 C 355.640625 340.675781 358.355469 341.117188 366.449219 337.097656 C 369.5 335.582031 373.253906 334.328125 374.789062 334.3125 C 376.320312 334.300781 380.878906 335.960938 384.914062 338 C 388.949219 340.042969 393.046875 341.714844 394.019531 341.714844 C 394.988281 341.714844 396.785156 342.714844 398.007812 343.9375 C 399.964844 345.894531 400.171875 346.765625 399.730469 351.140625 C 399.269531 355.761719 399.433594 356.308594 402.007812 358.746094 C 406.382812 362.894531 409.460938 362.011719 412.730469 355.664062 C 414.683594 351.878906 415.207031 349.839844 414.761719 347.765625 C 413.371094 341.246094 413.226562 336.839844 414.316406 334.203125 C 415.9375 330.289062 422.035156 325.363281 426.714844 324.183594 C 428.890625 323.636719 431.378906 322.40625 432.242188 321.453125 C 433.734375 319.804688 433.625 319.527344 430.089844 315.917969 C 426.046875 311.796875 425.273438 308.199219 427.730469 304.953125 C 429.777344 302.246094 429.449219 300.296875 426.351562 296.765625 C 424.808594 295.007812 423.117188 292.339844 422.59375 290.835938 C 421.648438 288.125 421.597656 288.109375 416.800781 288.90625 C 410.335938 289.980469 406.558594 289.214844 399.789062 285.453125 C 396.671875 283.722656 392.28125 282.03125 390.03125 281.695312 C 385.441406 281.015625 383.183594 279.785156 377.058594 274.648438 C 374.578125 272.566406 370.152344 270.1875 366.371094 268.898438 C 358.605469 266.257812 349.117188 261.566406 347.4375 259.542969 C 346.609375 258.546875 344.65625 258.074219 341.367188 258.074219 C 332.160156 258.074219 320.421875 250.117188 320.421875 243.882812 C 320.421875 241.257812 316.972656 237.964844 313.25 237.03125 C 311.707031 236.640625 310.382812 237.074219 308.925781 238.445312 C 306.371094 240.84375 304.457031 240.945312 302.515625 238.789062 C 300.113281 236.125 299.640625 232.445312 301.28125 229.164062 C 303.289062 225.136719 303.160156 224.167969 300.441406 222.929688 C 298.582031 222.082031 298.117188 222.121094 298.117188 223.136719 M 653.128906 227.125 C 652.363281 227.402344 650.003906 229.292969 647.886719 231.328125 C 644.175781 234.898438 643.871094 235.007812 639.058594 234.539062 C 636.320312 234.273438 632.792969 233.777344 631.222656 233.4375 C 627.636719 232.660156 623.570312 235.792969 621.125 241.214844 C 619.441406 244.949219 614.839844 248.085938 609.449219 249.171875 C 607.863281 249.496094 606.410156 251 604.867188 253.929688 C 603.578125 256.378906 600.933594 259.367188 598.695312 260.910156 C 596.464844 262.441406 594.351562 264.828125 593.785156 266.445312 C 592.429688 270.34375 587.601562 272.273438 580.242188 271.863281 C 575.707031 271.609375 574.597656 271.824219 574.597656 272.945312 C 574.597656 273.890625 575.914062 274.511719 578.683594 274.882812 C 583.253906 275.492188 584.796875 277.046875 586.410156 282.683594 C 587 284.738281 587.546875 286.527344 587.632812 286.660156 C 587.714844 286.792969 589.574219 286.273438 591.761719 285.5 C 594.019531 284.703125 598.910156 284.097656 603.058594 284.097656 C 610.132812 284.097656 610.492188 283.988281 614.027344 280.792969 C 616.039062 278.976562 618.980469 275.46875 620.570312 272.992188 C 623.226562 268.855469 625.144531 267.5 630.457031 266.015625 C 631.53125 265.714844 636.339844 262.941406 641.144531 259.855469 C 648.371094 255.207031 650.355469 254.332031 652.664062 254.777344 C 656.492188 255.511719 657.984375 257.792969 657.296875 261.863281 C 656.890625 264.265625 657.136719 265.523438 658.183594 266.394531 C 658.980469 267.054688 659.632812 268.765625 659.632812 270.195312 C 659.632812 272.8125 657.515625 274.625 649.929688 278.511719 C 646.886719 280.074219 646.273438 281.175781 647.441406 283.015625 C 648.566406 284.792969 656.789062 280.480469 660.238281 276.304688 C 663.496094 272.351562 670.359375 268.324219 673.851562 268.308594 C 675.28125 268.300781 677.6875 268.933594 679.195312 269.714844 C 682.199219 271.265625 682.691406 270.574219 680.574219 267.777344 C 678.550781 265.101562 678.832031 259.269531 681.171875 255.488281 L 683.191406 252.21875 L 680.65625 250.035156 C 678.527344 248.203125 677.089844 247.851562 671.777344 247.851562 C 663.964844 247.851562 662.921875 246.914062 663.78125 240.664062 L 664.394531 236.210938 L 661.316406 236.222656 C 658.242188 236.234375 658.238281 236.230469 658.390625 231.820312 C 658.472656 229.390625 658.191406 227.40625 657.769531 227.40625 C 657.34375 227.40625 656.441406 227.230469 655.761719 227.015625 C 655.078125 226.800781 653.894531 226.851562 653.128906 227.125 M 223.652344 229.320312 C 220.96875 230.695312 219.957031 232.066406 218.339844 236.503906 C 215.425781 244.496094 211.714844 249.113281 205.945312 251.921875 C 199.417969 255.101562 198.367188 256.007812 196.109375 260.398438 C 192.578125 267.269531 187.066406 271.015625 175.015625 274.726562 C 167.679688 276.988281 164.570312 276.675781 161.457031 273.359375 C 157.941406 269.617188 155.972656 270.398438 148.675781 278.445312 C 142.753906 284.972656 140.128906 288.988281 140.128906 291.523438 C 140.128906 293.226562 143.167969 295.246094 145.726562 295.246094 C 149.375 295.246094 152.988281 297.019531 153.660156 299.144531 C 153.96875 300.109375 153.523438 303.109375 152.671875 305.8125 C 151.824219 308.515625 151.265625 311.925781 151.4375 313.386719 C 151.707031 315.71875 152.308594 316.191406 156.300781 317.203125 C 161.664062 318.566406 162.613281 319.683594 162.128906 324.058594 C 161.707031 327.847656 164.621094 338.199219 166.558594 339.8125 C 167.417969 340.523438 169.332031 340.703125 171.9375 340.308594 C 174.914062 339.863281 177.453125 340.226562 181.523438 341.675781 C 184.570312 342.761719 189.957031 344.292969 193.496094 345.078125 C 201.746094 346.910156 207.6875 349.714844 209.664062 352.714844 C 210.519531 354.019531 212.316406 358.453125 213.65625 362.574219 L 216.089844 370.058594 L 223.289062 374.496094 L 230.492188 378.933594 L 233.390625 377.238281 C 240.921875 372.84375 244.105469 363.125 240.601562 355.210938 C 237.890625 349.082031 238.023438 344.445312 240.992188 341.476562 C 244.824219 337.644531 248.703125 337.472656 255.34375 340.847656 C 262.488281 344.476562 263.683594 346.859375 261.375 352.867188 C 260.492188 355.167969 259.566406 358.199219 259.320312 359.605469 C 258.683594 363.234375 261.433594 362.996094 267.117188 358.921875 C 272.179688 355.292969 277.121094 352.867188 279.457031 352.867188 C 282.144531 352.867188 283.246094 350.804688 283.246094 345.773438 C 283.246094 341.332031 283.507812 340.734375 286.269531 338.847656 C 293.050781 334.207031 292.667969 331.484375 285.328125 332.191406 C 279.871094 332.714844 276.910156 330.679688 276.207031 325.917969 C 275.398438 320.464844 278.128906 317.425781 288.6875 312 C 293.785156 309.382812 299.976562 305.351562 302.449219 303.042969 C 306.480469 299.285156 306.773438 298.75 305.269531 297.902344 C 304.125 297.257812 302.679688 297.277344 300.703125 297.96875 C 296.84375 299.3125 292.988281 297.074219 293.882812 294.007812 C 295.558594 288.285156 295.453125 286.378906 293.28125 283.167969 C 291.453125 280.453125 290.394531 279.835938 286.933594 279.449219 C 283.242188 279.035156 282.59375 278.597656 281.082031 275.5 C 280.144531 273.582031 278.988281 272.015625 278.515625 272.015625 C 278.042969 272.015625 275.921875 273.269531 273.804688 274.800781 C 269.140625 278.183594 268.023438 278.246094 265.082031 275.308594 C 263.3125 273.539062 262.800781 272.058594 262.800781 268.683594 C 262.800781 265.023438 262.289062 263.773438 259.550781 260.738281 C 257.121094 258.050781 256.296875 256.304688 256.296875 253.84375 C 256.296875 248.410156 251.300781 245.0625 243.191406 245.0625 C 239.277344 245.0625 237.511719 241.796875 237.820312 235.132812 L 238.070312 229.738281 L 233.613281 229.101562 C 231.164062 228.75 228.667969 228.273438 228.0625 228.042969 C 227.457031 227.808594 225.476562 228.386719 223.652344 229.320312 M 285.242188 255.351562 C 283.78125 255.9375 283.238281 256.710938 283.613281 257.691406 C 283.925781 258.496094 284.175781 259.523438 284.175781 259.976562 C 284.175781 261.28125 287.617188 262.769531 289.222656 262.152344 C 291.539062 261.261719 290.882812 254.28125 288.492188 254.414062 C 287.90625 254.449219 286.445312 254.867188 285.242188 255.351562 M 648.691406 258.816406 C 647.113281 259.6875 642.96875 262.117188 639.484375 264.222656 C 636 266.328125 631.554688 268.5625 629.605469 269.191406 C 626.910156 270.0625 624.984375 271.808594 621.53125 276.519531 C 615.007812 285.40625 612.027344 287.152344 603.664062 286.980469 C 597.617188 286.855469 590.957031 288.148438 584.546875 290.6875 C 583.371094 291.148438 581.136719 291.53125 579.578125 291.53125 C 578.019531 291.53125 574.410156 292.207031 571.554688 293.039062 C 567.613281 294.183594 564.511719 294.398438 558.636719 293.917969 C 551.851562 293.371094 550.371094 293.539062 546.492188 295.320312 C 542.140625 297.316406 542.070312 297.414062 542.09375 301.640625 C 542.109375 304.175781 542.796875 306.949219 543.769531 308.402344 C 545.296875 310.6875 545.675781 310.800781 548.855469 309.921875 C 553.179688 308.726562 561.503906 309.546875 564.414062 311.453125 C 567.78125 313.65625 570.4375 313.226562 575.460938 309.652344 C 581.683594 305.230469 586.214844 305.167969 590.289062 309.445312 C 591.882812 311.117188 594.648438 313.484375 596.4375 314.699219 C 598.226562 315.914062 600.214844 317.554688 600.851562 318.339844 C 602.792969 320.722656 602.242188 324.671875 599.691406 326.679688 C 598.414062 327.683594 597.367188 328.914062 597.367188 329.410156 C 597.367188 329.90625 596.566406 331.328125 595.589844 332.570312 C 594.539062 333.90625 593.699219 336.664062 593.539062 339.308594 C 593.285156 343.402344 593.488281 343.902344 595.890625 345.160156 C 598.371094 346.460938 598.722656 346.386719 602.304688 343.789062 C 605.84375 341.226562 606.207031 340.53125 607.753906 333.347656 C 608.664062 329.117188 610.140625 324.5625 611.035156 323.230469 C 612.160156 321.550781 612.570312 319.449219 612.367188 316.414062 C 612.082031 312.230469 612.273438 311.832031 616.335938 308.136719 C 618.679688 306.003906 620.601562 303.632812 620.601562 302.871094 C 620.601562 302.105469 622.691406 299.347656 625.246094 296.738281 C 627.804688 294.128906 631.265625 290.113281 632.941406 287.8125 C 634.617188 285.511719 637.4375 282.925781 639.214844 282.066406 C 640.988281 281.203125 643.175781 279.769531 644.070312 278.878906 C 644.964844 277.988281 647.871094 276.148438 650.523438 274.792969 C 656.664062 271.652344 657.804688 269.96875 655.519531 267.441406 C 654.253906 266.046875 653.945312 264.695312 654.339844 262.277344 C 655.046875 257.914062 652.816406 256.546875 648.691406 258.816406 M 510.472656 270.316406 C 507.699219 271.917969 507.226562 273.066406 507.8125 276.753906 C 508.15625 278.925781 507.820312 281.105469 506.851562 282.980469 C 506.03125 284.566406 505.363281 286.300781 505.363281 286.835938 C 505.363281 288.355469 511.441406 287.984375 515.089844 286.246094 C 518.402344 284.667969 519.105469 283.347656 517.496094 281.726562 C 517.011719 281.242188 516.488281 278.332031 516.332031 275.265625 C 516.089844 270.496094 515.78125 269.660156 514.191406 269.46875 C 513.167969 269.34375 511.496094 269.726562 510.472656 270.316406 M 640.371094 284.6875 C 638.71875 285.5 635.917969 288.355469 634.144531 291.027344 C 632.371094 293.699219 629.46875 296.992188 627.695312 298.34375 C 625.921875 299.695312 624.003906 302.210938 623.4375 303.933594 C 622.867188 305.65625 620.742188 308.398438 618.714844 310.027344 C 614.71875 313.238281 614.035156 315.949219 616.453125 319 C 617.851562 320.773438 617.898438 320.773438 619.007812 319.035156 C 622.457031 313.628906 625.574219 311.082031 630.511719 309.648438 C 635.375 308.234375 635.773438 308.246094 637.515625 309.820312 C 639.308594 311.445312 639.429688 311.417969 641.558594 308.945312 C 644.472656 305.554688 645.300781 300.613281 643.875 295.0625 C 642.882812 291.1875 642.929688 290.238281 644.195312 288.304688 C 645.546875 286.246094 645.40625 283.136719 643.96875 283.1875 C 643.640625 283.199219 642.019531 283.875 640.371094 284.6875 M 425.71875 287.484375 C 424.148438 288.121094 425.734375 291.957031 429.1875 295.890625 C 432.226562 299.355469 432.746094 303.125 430.578125 305.988281 C 428.34375 308.945312 428.9375 311.0625 433.066406 314.835938 C 436.617188 318.082031 436.890625 318.644531 436.066406 321 C 435.167969 323.570312 433.085938 324.910156 424.648438 328.351562 C 419.925781 330.277344 416.144531 334.761719 416.144531 338.441406 C 416.144531 339.867188 416.628906 342.652344 417.21875 344.628906 C 418.296875 348.214844 418.308594 348.222656 423.242188 348.222656 C 426.710938 348.222656 429.6875 348.957031 433.21875 350.691406 L 438.253906 353.160156 L 442.425781 350.714844 C 445.09375 349.148438 447.820312 348.316406 449.988281 348.394531 C 452.621094 348.496094 454.050781 347.878906 456.371094 345.648438 C 458.015625 344.066406 460.515625 342.488281 461.933594 342.140625 C 465.191406 341.335938 469.519531 343.09375 471.417969 345.992188 C 475.007812 351.46875 485.015625 346.453125 488.722656 337.3125 C 490.742188 332.339844 494.429688 328.628906 498.625 327.355469 C 500.992188 326.636719 501.316406 324.199219 499.671875 319.488281 C 498.824219 317.046875 498.925781 315.839844 500.242188 312.925781 C 501.128906 310.957031 501.683594 308.84375 501.476562 308.222656 C 501.066406 306.992188 493.617188 306.378906 479.539062 306.414062 C 472.074219 306.433594 469.964844 306.058594 463.902344 303.628906 C 458.742188 301.5625 455.375 300.824219 451.132812 300.824219 C 444.300781 300.824219 442.015625 299.515625 439.257812 294.023438 C 436.195312 287.933594 434.902344 286.875 430.636719 286.957031 C 428.542969 286.996094 426.332031 287.234375 425.714844 287.484375 M 515.585938 289.207031 C 514.308594 289.9375 511.855469 290.550781 510.140625 290.570312 C 507.539062 290.59375 507.132812 290.871094 507.691406 292.226562 C 508.058594 293.121094 508.554688 294.523438 508.792969 295.34375 C 509.445312 297.601562 507.304688 304.566406 505.777344 305.152344 C 505.027344 305.441406 504.433594 306.875 504.433594 308.40625 C 504.433594 309.910156 503.808594 312.351562 503.042969 313.828125 C 502.007812 315.832031 501.886719 317.140625 502.578125 318.953125 C 503.800781 322.179688 503.757812 327.152344 502.488281 328.417969 C 501.753906 329.152344 501.773438 330 502.566406 331.476562 C 503.777344 333.738281 503.101562 347.445312 501.527344 352.5625 C 500.390625 356.257812 493.976562 362.234375 487.777344 365.375 C 485.171875 366.695312 479.382812 368.710938 474.917969 369.847656 C 467.703125 371.6875 466.757812 372.171875 466.472656 374.191406 C 466.042969 377.230469 468.507812 378.890625 473.445312 378.890625 C 477.628906 378.890625 479.339844 380.46875 479.339844 384.328125 C 479.339844 385.433594 480.648438 386.980469 482.617188 388.195312 C 486.183594 390.402344 488.921875 394.714844 488.105469 396.839844 C 487.777344 397.695312 488.789062 398.925781 490.882812 400.21875 C 492.695312 401.339844 495.183594 403.539062 496.410156 405.105469 C 499.492188 409.046875 503.085938 408.210938 505.105469 403.078125 C 506.957031 398.351562 510.777344 396.546875 514.183594 398.78125 C 515.464844 399.621094 516.515625 400.832031 516.515625 401.472656 C 516.515625 402.113281 517.136719 403.527344 517.898438 404.617188 C 519.273438 406.578125 519.328125 406.582031 523.707031 404.925781 C 529.710938 402.660156 530.265625 400.78125 527.777344 391.1875 C 526.695312 387.007812 525.808594 381.671875 525.808594 379.332031 C 525.808594 374.660156 524.300781 371.042969 521.171875 368.210938 C 517.710938 365.078125 517.382812 363.636719 518.929688 358.425781 C 520.585938 352.847656 520.183594 352.109375 515.039062 351.292969 C 507.28125 350.058594 504.316406 345.484375 507.261719 339.285156 C 508.207031 337.300781 509.523438 335.03125 510.191406 334.246094 C 512.277344 331.785156 516.90625 328.90625 519.3125 328.566406 C 523.644531 327.953125 521.828125 325.671875 515.335938 323.566406 C 504.5 320.050781 503.441406 317.734375 508.25 308.039062 L 511.828125 300.824219 C 512.921875 298.617188 518.015625 298.582031 521.078125 300.765625 C 522.558594 301.820312 524.617188 302.683594 525.652344 302.683594 C 526.6875 302.683594 528.355469 303.726562 529.359375 305.007812 C 533.359375 310.089844 539.625 306 538.964844 298.734375 C 538.84375 297.398438 537.898438 297.105469 533.675781 297.105469 C 526.878906 297.105469 522.539062 295.183594 520.136719 291.109375 C 519.066406 289.296875 518.125 287.828125 518.046875 287.84375 C 517.972656 287.863281 516.863281 288.476562 515.585938 289.207031 M 304.445312 304.949219 C 301.273438 307.9375 295.921875 311.554688 291.09375 313.96875 C 279.902344 319.566406 276.246094 324.355469 280.167969 328.28125 C 281.386719 329.5 282.746094 329.730469 286.25 329.316406 C 289.945312 328.878906 291.089844 329.113281 292.582031 330.601562 C 295.8125 333.832031 294.902344 336.167969 288.589844 340.875 C 286.433594 342.484375 286.035156 343.460938 286.035156 347.179688 C 286.035156 352.742188 284.660156 354.605469 279.742188 355.710938 C 277.582031 356.195312 273.074219 358.472656 269.714844 360.769531 C 262.582031 365.652344 257.710938 366.421875 256.394531 362.867188 C 255.621094 360.773438 255.875 359.539062 258.597656 352.070312 C 260.335938 347.300781 259.867188 346.425781 254.070312 343.621094 C 243.980469 338.738281 238.671875 343.800781 243.265625 353.925781 C 247.167969 362.527344 244.089844 373.546875 236.359375 378.667969 C 233.332031 380.671875 232.507812 381.699219 233.128906 382.679688 C 234.46875 384.796875 234.121094 389.707031 232.535156 391.023438 C 230.527344 392.6875 228.417969 396.976562 228.417969 399.386719 C 228.417969 400.488281 229.414062 402.175781 230.636719 403.136719 C 231.855469 404.097656 233.117188 405.925781 233.4375 407.207031 C 233.820312 408.726562 234.898438 409.742188 236.5625 410.152344 C 237.960938 410.492188 241.226562 411.964844 243.824219 413.417969 C 247.941406 415.722656 249.519531 416.0625 256.140625 416.0625 C 262.492188 416.0625 264.035156 416.367188 265.589844 417.921875 C 266.613281 418.945312 267.449219 420.394531 267.449219 421.140625 C 267.449219 421.890625 268.207031 422.910156 269.132812 423.40625 C 271.90625 424.886719 275.125 422.578125 276.804688 417.902344 C 278.007812 414.5625 279.109375 413.324219 282.367188 411.648438 C 289.136719 408.164062 293.46875 409.53125 293.46875 415.148438 C 293.46875 417.980469 296.292969 420.710938 299.222656 420.710938 C 300.113281 420.710938 302.386719 419.351562 304.28125 417.6875 C 307.511719 414.855469 308.15625 414.667969 314.769531 414.652344 C 319.398438 414.640625 323.316406 414.046875 326.191406 412.914062 L 330.566406 411.195312 L 334.96875 413.773438 C 339.042969 416.160156 339.667969 416.273438 343.382812 415.277344 C 349.144531 413.738281 350.507812 413.917969 352.773438 416.527344 C 353.886719 417.804688 355.136719 418.851562 355.554688 418.851562 C 357.851562 418.851562 359.652344 415.890625 360.859375 410.128906 C 362.457031 402.484375 365.613281 397.960938 370.945312 395.660156 C 373.164062 394.703125 376.484375 391.984375 378.800781 389.226562 C 381.007812 386.597656 384.066406 383.800781 385.597656 383.007812 C 389.617188 380.929688 388.386719 378.78125 382.472656 377.535156 C 379.582031 376.929688 377.105469 372.949219 377.125 368.945312 C 377.15625 363.679688 378.628906 363.101562 388.75 364.378906 C 393.710938 365.003906 394.640625 364.851562 396.921875 363.058594 C 399.359375 361.140625 399.421875 360.910156 398.0625 358.839844 C 397.171875 357.480469 396.628906 354.539062 396.628906 351.078125 L 396.628906 345.503906 L 392.679688 344.441406 C 390.507812 343.855469 386.050781 341.960938 382.78125 340.222656 C 379.507812 338.488281 375.953125 337.082031 374.878906 337.097656 C 373.808594 337.113281 370.429688 338.367188 367.378906 339.886719 C 364.324219 341.402344 360.488281 342.644531 358.851562 342.644531 C 355.585938 342.644531 350.640625 339.113281 349.683594 336.097656 C 348.890625 333.597656 345.875 333.8125 342.558594 336.605469 C 340.492188 338.339844 338.722656 338.925781 335.539062 338.925781 C 331.78125 338.925781 330.871094 338.492188 327.71875 335.175781 C 324.675781 331.976562 323.871094 331.570312 322.285156 332.417969 C 319.527344 333.894531 319.886719 338.347656 323.09375 342.46875 C 329.875 351.171875 328.023438 357.515625 318.695312 357.515625 C 316.085938 357.515625 314.160156 356.816406 312.191406 355.160156 C 308.121094 351.734375 307.183594 348.023438 308.332031 339.910156 C 309.671875 330.476562 311.679688 326.492188 317.167969 322.378906 C 320.949219 319.546875 322.15625 317.910156 323.640625 313.625 C 326.652344 304.914062 324.359375 301.664062 314.382812 300.503906 C 309.773438 299.964844 309.6875 300.007812 304.445312 304.949219 M 576.523438 312.441406 C 571.484375 316.023438 567.15625 316.644531 563.585938 314.304688 C 560.535156 312.308594 553.828125 311.617188 549.300781 312.835938 C 545.910156 313.75 545.269531 314.34375 544.4375 317.347656 C 543.011719 322.480469 543.238281 324.019531 545.554688 324.882812 C 549.113281 326.207031 572.21875 325.894531 577.984375 324.445312 C 584.757812 322.746094 589.34375 322.777344 592.777344 324.550781 C 598.210938 327.363281 601.785156 322.15625 596.753906 318.757812 C 595.394531 317.839844 592.449219 315.308594 590.207031 313.136719 C 585.136719 308.226562 582.628906 308.097656 576.523438 312.441406 M 628.039062 313.605469 C 626.085938 314.582031 623.929688 316.800781 622.628906 319.179688 C 620.738281 322.621094 620.058594 323.128906 617.3125 323.128906 C 613.632812 323.128906 612.617188 324.558594 610.753906 332.359375 C 609.054688 339.453125 609.113281 344.925781 610.898438 346.410156 C 612.617188 347.832031 629.644531 347.726562 631.390625 346.277344 C 631.988281 345.78125 632.75 343.582031 633.078125 341.390625 C 633.40625 339.199219 634.914062 334.78125 636.433594 331.578125 C 639.710938 324.648438 639.769531 323.941406 637.253906 321.667969 C 635.648438 320.210938 635.421875 319.25 635.917969 315.945312 C 636.5 312.070312 636.449219 311.976562 633.902344 311.976562 C 632.464844 311.976562 629.828125 312.710938 628.039062 313.605469 M 494.917969 333.117188 C 493.585938 334.523438 491.785156 337.460938 490.917969 339.644531 C 488.097656 346.761719 478.503906 352.988281 473.371094 351.035156 C 472.222656 350.597656 469.988281 348.949219 468.410156 347.371094 C 464.820312 343.78125 462.746094 343.757812 459.378906 347.269531 C 456.585938 350.183594 451.316406 352.4375 449.195312 351.625 C 448.503906 351.359375 446.035156 352.160156 443.703125 353.398438 C 438.425781 356.207031 437.609375 356.203125 431.945312 353.332031 C 427.203125 350.929688 421.910156 350.347656 419 351.902344 C 418.082031 352.394531 416.800781 354.070312 416.15625 355.625 C 415.042969 358.316406 415.167969 358.648438 418.816406 362.609375 C 420.925781 364.894531 422.648438 367.160156 422.648438 367.644531 C 422.648438 368.125 425.367188 371.480469 428.691406 375.101562 C 432.011719 378.722656 434.730469 382.4375 434.730469 383.359375 C 434.730469 384.277344 433.480469 387.007812 431.949219 389.417969 L 429.164062 393.808594 L 431.695312 394.769531 C 433.496094 395.457031 435.882812 395.40625 439.933594 394.601562 C 446.789062 393.238281 448.234375 393.667969 448.960938 397.292969 C 449.417969 399.585938 450.261719 400.316406 453.90625 401.554688 C 459.175781 403.351562 462.246094 403.460938 463.230469 401.890625 C 463.628906 401.253906 464.179688 398.847656 464.445312 396.546875 L 464.933594 392.363281 L 469.144531 392.089844 C 472.570312 391.867188 474.132812 392.339844 477.511719 394.628906 C 482.332031 397.894531 484.917969 398.269531 484.917969 395.699219 C 484.917969 394.046875 480.734375 389.730469 478.371094 388.945312 C 477.800781 388.753906 477.035156 387.144531 476.675781 385.371094 C 476.054688 382.320312 475.765625 382.113281 471.507812 381.621094 C 465.882812 380.96875 462.269531 377.441406 463.183594 373.488281 C 464 369.980469 465.609375 368.976562 473.175781 367.269531 C 485.828125 364.414062 496.871094 357.683594 498.714844 351.703125 C 500.28125 346.625 500.972656 334.640625 499.824219 332.496094 C 498.472656 329.972656 497.828125 330.054688 494.917969 333.117188 M 170.550781 343.3125 C 168.730469 343.585938 167.613281 344.5625 166.71875 346.65625 C 164.027344 352.972656 158.523438 355.839844 154.765625 352.882812 C 152.113281 350.796875 149.648438 350.570312 144.695312 351.945312 C 142.167969 352.648438 140.261719 352.519531 136.796875 351.410156 C 123.777344 347.242188 122.84375 347.523438 118.222656 357.003906 C 114.382812 364.875 114.015625 367.855469 116.535156 370.640625 C 120.945312 375.515625 127.964844 376.644531 137.609375 374.035156 L 144.84375 372.074219 L 147.359375 373.949219 C 150.882812 376.578125 151.992188 380.917969 149.941406 384.050781 C 147.460938 387.835938 142.640625 389.351562 131.53125 389.839844 C 122.703125 390.230469 121.542969 390.472656 121.542969 391.949219 C 121.542969 394.289062 125.589844 398.835938 131.679688 403.332031 C 138.484375 408.359375 140.558594 410.683594 144.460938 417.667969 C 146.25 420.863281 148.78125 424.320312 150.085938 425.347656 C 153.160156 427.765625 158.589844 427.769531 166.390625 425.359375 C 176.570312 422.214844 179.316406 418.878906 180.550781 408.164062 C 181.378906 400.992188 184.195312 395.015625 187.574219 393.269531 C 192.367188 390.789062 196.160156 391.648438 198.246094 395.683594 C 200.101562 399.273438 199.953125 403.019531 197.746094 408.164062 C 195.324219 413.820312 195.402344 416.191406 198.285156 424.496094 C 200.285156 430.257812 200.605469 432.507812 200.214844 438.136719 C 199.851562 443.417969 200.023438 444.871094 201.011719 444.871094 C 204.09375 444.871094 206.972656 442.851562 209.433594 438.964844 C 210.894531 436.65625 213.042969 434.332031 214.210938 433.800781 C 216.019531 432.976562 216.335938 432.125 216.335938 428.105469 C 216.335938 422.316406 217.230469 420.527344 221.433594 417.929688 C 224.914062 415.78125 225.78125 413.273438 223.046875 413.273438 C 221.046875 413.273438 217.265625 410.753906 217.265625 409.421875 C 217.265625 408.894531 219.144531 406.632812 221.445312 404.398438 C 224.078125 401.839844 225.628906 399.519531 225.628906 398.136719 C 225.628906 396.925781 226.925781 393.976562 228.515625 391.582031 C 233.035156 384.753906 231.355469 382.011719 218.339844 374.976562 C 213.792969 372.519531 213.628906 372.28125 211.324219 364.753906 C 210.023438 360.515625 208.292969 356.101562 207.476562 354.945312 C 205.417969 352.035156 200.222656 349.5625 192.59375 347.871094 C 189.039062 347.085938 183.832031 345.597656 181.019531 344.570312 C 175.859375 342.6875 175.199219 342.609375 170.550781 343.3125 M 602.941406 346.960938 C 601.183594 348.164062 599.261719 349.148438 598.675781 349.148438 C 597.015625 349.148438 596.398438 357.519531 597.894531 359.800781 C 598.589844 360.863281 599.417969 364.234375 599.734375 367.289062 C 600.050781 370.347656 601.078125 374.734375 602.019531 377.035156 C 602.960938 379.339844 604.027344 383.847656 604.390625 387.058594 C 605 392.46875 605.164062 392.789062 606.625 391.46875 C 607.492188 390.683594 608.847656 390.042969 609.640625 390.042969 C 612.691406 390.042969 613.527344 387.550781 612.308594 382.09375 C 610.988281 376.207031 611.652344 371.84375 614.304688 368.957031 C 615.769531 367.355469 616.046875 366.164062 615.597656 363.378906 C 615.179688 360.707031 614.792969 358.03125 614.4375 355.351562 C 613.976562 351.867188 613.382812 350.691406 611.769531 350.078125 C 610.628906 349.644531 608.894531 348.273438 607.914062 347.027344 L 606.136719 344.769531 Z M 589.46875 347.566406 C 588.445312 348.25 585.621094 349.550781 583.191406 350.453125 C 578.476562 352.207031 575.992188 354.832031 575.992188 358.070312 C 575.992188 361.320312 580.355469 369.925781 582.917969 371.730469 L 585.285156 373.398438 L 585.285156 369.234375 C 585.285156 362.308594 587.972656 357.617188 591.980469 357.542969 C 593.035156 357.523438 593.761719 356.464844 594.152344 354.382812 C 595.40625 347.699219 593.472656 344.882812 589.46875 347.566406 M 411.421875 362.71875 C 410.574219 363.738281 408.972656 364.074219 405.980469 363.859375 C 402.765625 363.628906 400.878906 364.089844 398.191406 365.761719 C 394.941406 367.78125 394.027344 367.910156 387.273438 367.324219 C 379.972656 366.6875 379.898438 366.703125 379.898438 368.859375 C 379.898438 372.066406 382.441406 375.171875 385.0625 375.171875 C 387.8125 375.171875 391.050781 378.191406 391.050781 380.75 C 391.050781 381.898438 389.359375 383.84375 386.636719 385.835938 C 384.210938 387.609375 380.808594 390.78125 379.078125 392.890625 C 377.347656 394.996094 374.125 397.492188 371.921875 398.441406 C 367.367188 400.390625 364.539062 404.839844 363.570312 411.5625 C 363.25 413.78125 362.21875 416.695312 361.277344 418.039062 C 360.335938 419.382812 359.777344 421.285156 360.035156 422.265625 C 360.292969 423.25 359.652344 426.207031 358.617188 428.839844 C 357.066406 432.773438 356.914062 434.148438 357.746094 436.546875 C 358.351562 438.28125 358.519531 441.839844 358.164062 445.34375 C 357.558594 451.21875 357.5625 451.230469 361.34375 455.597656 C 364.320312 459.035156 365.070312 460.59375 364.847656 462.859375 C 364.625 465.160156 363.996094 465.917969 361.777344 466.574219 C 356.980469 467.988281 356.21875 468.679688 355.660156 472.109375 C 355.359375 473.941406 354.632812 476.027344 354.042969 476.738281 C 353.179688 477.777344 353.894531 478.628906 357.710938 481.101562 C 363.019531 484.542969 367.820312 491.253906 367.820312 495.238281 C 367.820312 497.351562 368.230469 497.847656 369.996094 497.847656 C 371.742188 497.847656 372.398438 497.085938 373.324219 493.992188 C 374.113281 491.367188 376.207031 488.476562 379.890625 484.929688 C 386.136719 478.921875 389.183594 474.265625 389.191406 470.738281 C 389.191406 469.375 387.785156 465.316406 386.0625 461.722656 C 382.542969 454.378906 382.542969 450.898438 386.0625 449.296875 C 387.652344 448.570312 389.25 448.59375 391.855469 449.371094 C 398.804688 451.453125 400.589844 449.960938 396.144531 445.78125 C 389.3125 439.367188 393.09375 426.570312 402.886719 422.957031 C 409.167969 420.640625 410.390625 419.34375 414.371094 410.730469 C 416.417969 406.296875 419.6875 401.171875 422.136719 398.550781 C 424.464844 396.066406 426.375 393.65625 426.382812 393.199219 C 426.394531 392.738281 427.648438 390.523438 429.171875 388.277344 C 430.695312 386.027344 431.945312 383.886719 431.945312 383.523438 C 431.945312 383.15625 429.957031 380.808594 427.527344 378.304688 C 425.101562 375.800781 421.480469 371.332031 419.488281 368.375 C 415.222656 362.0625 413.164062 360.617188 411.421875 362.71875 M 467.257812 397.816406 C 467.257812 402.503906 464.207031 405.851562 459.988281 405.789062 C 452.710938 405.683594 448.132812 402.859375 445.285156 396.722656 C 445.210938 396.5625 442.675781 396.945312 439.648438 397.570312 C 435.449219 398.4375 433.417969 398.453125 431.070312 397.636719 C 428.113281 396.605469 427.863281 396.710938 424.375 400.503906 C 422.378906 402.671875 418.871094 408.304688 416.574219 413.015625 C 412.277344 421.84375 411.601562 422.515625 403.695312 425.792969 C 395.621094 429.140625 393.089844 438.117188 398.488281 444.265625 C 404.152344 450.71875 401.257812 455.164062 392.988281 452.710938 C 390.367188 451.929688 387.8125 451.546875 387.3125 451.855469 C 385.714844 452.84375 386.332031 455.917969 389.195312 461.285156 C 394.21875 470.703125 392.691406 476.363281 382.300781 486.800781 C 377.28125 491.839844 376.183594 493.488281 376.183594 495.960938 C 376.183594 498.78125 376.347656 498.9375 378.738281 498.359375 C 389.734375 495.707031 391.539062 494.523438 393.761719 488.503906 C 395.132812 484.789062 395.808594 484.1875 401.125 481.96875 C 404.648438 480.5 408.707031 477.832031 411.328125 475.265625 C 417.246094 469.464844 419.28125 468.824219 426.039062 470.636719 L 431.519531 472.105469 L 437.910156 468.710938 C 441.429688 466.84375 445.265625 465.320312 446.445312 465.320312 C 447.75 465.320312 450.320312 463.601562 453.042969 460.902344 C 455.492188 458.476562 461.015625 454.613281 465.3125 452.320312 C 473.4375 447.984375 482.128906 440.984375 482.128906 438.777344 C 482.128906 438.078125 483.441406 436.003906 485.050781 434.175781 C 487.808594 431.03125 487.914062 430.648438 486.910156 427.296875 C 486.324219 425.34375 485.855469 422.539062 485.867188 421.066406 C 485.898438 416.996094 489.160156 410.632812 491.839844 409.410156 C 493.144531 408.816406 494.210938 407.875 494.210938 407.316406 C 494.210938 405.488281 488.046875 401.339844 484.351562 400.683594 C 482.363281 400.328125 478.886719 398.832031 476.625 397.363281 C 474.367188 395.890625 471.332031 394.6875 469.886719 394.6875 C 467.523438 394.6875 467.257812 395.003906 467.257812 397.816406 M 224.234375 405.964844 C 221.019531 407.9375 220.617188 409.84375 223.304688 410.34375 C 226.085938 410.859375 227.488281 412.324219 227.488281 414.71875 C 227.488281 416.136719 226.066406 418.03125 223.304688 420.296875 C 219.296875 423.578125 219.121094 423.929688 219.121094 428.683594 C 219.121094 432.164062 218.667969 434.007812 217.609375 434.847656 C 215.847656 436.238281 212.832031 439.421875 209.167969 443.757812 C 207.121094 446.183594 205.605469 446.964844 201.957031 447.484375 C 197.5625 448.109375 197.285156 448.320312 196.222656 451.851562 C 194.070312 458.984375 194.769531 468.828125 199.121094 492.734375 C 201.480469 505.683594 202.222656 510.445312 203.757812 522.472656 C 205.871094 538.984375 205.789062 538.738281 209.019531 538.738281 C 210.539062 538.738281 212.992188 539.363281 214.476562 540.132812 C 216.617188 541.238281 217.660156 541.304688 219.523438 540.457031 C 222.589844 539.058594 223.167969 536.972656 222.417969 529.992188 C 221.894531 525.113281 222.058594 524.019531 223.507812 522.710938 C 226.386719 520.105469 235.117188 516.632812 240.496094 515.949219 C 246.027344 515.25 248.863281 513.457031 248.863281 510.652344 C 248.863281 508.136719 250.445312 505.492188 252.664062 504.304688 C 254.113281 503.53125 255.765625 503.667969 259.601562 504.871094 C 265.355469 506.683594 266.929688 506.046875 267.925781 501.511719 C 268.265625 499.957031 269.777344 497.925781 271.46875 496.75 C 273.09375 495.625 276.824219 492.503906 279.761719 489.820312 C 284.40625 485.574219 285.675781 484.898438 289.488281 484.652344 C 293.296875 484.40625 294.152344 483.953125 295.996094 481.210938 C 297.164062 479.476562 298.117188 476.644531 298.117188 474.917969 C 298.117188 472.550781 299.027344 470.792969 301.835938 467.75 C 304.867188 464.457031 305.550781 463.039062 305.550781 460.03125 C 305.550781 455.433594 308.5 452.308594 312.835938 452.308594 C 314.480469 452.308594 318.804688 453.808594 322.449219 455.644531 C 327.566406 458.222656 329.730469 458.847656 331.949219 458.386719 C 339.796875 456.769531 340.414062 456.792969 342.96875 458.804688 C 345.734375 460.976562 346.328125 464.917969 344.585938 469.5 C 343.382812 472.65625 344.757812 475.316406 348.007812 476.132812 C 350.945312 476.871094 352.949219 474.675781 352.949219 470.71875 C 352.949219 467.46875 355.902344 464.390625 359.019531 464.390625 C 362.605469 464.390625 362.890625 461.902344 359.6875 458.519531 C 355.285156 453.867188 354.574219 451.824219 355.269531 445.84375 C 355.644531 442.589844 355.464844 439.066406 354.804688 436.871094 C 353.871094 433.75 353.992188 432.574219 355.671875 428.308594 C 357.65625 423.277344 357.5625 421.640625 355.289062 421.640625 C 354.589844 421.640625 352.738281 420.558594 351.171875 419.242188 C 348.558594 417.042969 348.042969 416.933594 345 417.9375 C 340.933594 419.28125 336.289062 418.511719 333.050781 415.960938 L 330.621094 414.050781 L 326.683594 415.925781 C 323.65625 417.371094 321.113281 417.765625 315.699219 417.632812 C 308.964844 417.464844 308.5 417.589844 305.210938 420.476562 C 301.414062 423.808594 298.527344 424.238281 294.363281 422.085938 C 292.242188 420.988281 291.492188 419.824219 291.023438 416.894531 C 290.296875 412.355469 289.183594 411.78125 284.710938 413.652344 C 282.023438 414.773438 280.910156 416.035156 279.394531 419.691406 C 277.933594 423.199219 276.671875 424.691406 274.132812 425.894531 C 271.21875 427.277344 270.5 427.316406 268.496094 426.183594 C 267.234375 425.472656 265.507812 423.636719 264.660156 422.105469 C 263.164062 419.394531 262.90625 419.308594 255.488281 419.074219 C 248.726562 418.859375 246.941406 418.394531 239.902344 415.015625 C 233.402344 411.902344 231.71875 410.652344 230.683594 408.171875 C 229.066406 404.304688 227.703125 403.839844 224.234375 405.964844 M 309.277344 456.480469 C 308.570312 457.332031 308.351562 459.050781 308.710938 460.953125 C 309.222656 463.691406 308.8125 464.566406 305.097656 468.609375 C 302.011719 471.972656 300.90625 473.9375 300.90625 476.058594 C 300.90625 477.691406 299.722656 480.722656 298.179688 483.054688 C 295.671875 486.839844 295.457031 487.820312 295.511719 495.242188 C 295.566406 502.464844 295.300781 503.773438 292.960938 507.765625 C 290.875 511.320312 290.265625 513.683594 289.929688 519.480469 C 289.554688 525.964844 289.722656 526.96875 291.511719 528.875 C 292.617188 530.046875 293.832031 532.851562 294.214844 535.105469 L 294.910156 539.203125 L 301.585938 539.472656 C 307.351562 539.710938 308.738281 539.4375 311.785156 537.476562 C 313.722656 536.230469 317.402344 534.921875 319.957031 534.566406 C 323.949219 534.015625 325.195312 533.289062 328.792969 529.417969 C 332.078125 525.875 333.945312 524.691406 337.46875 523.898438 C 339.9375 523.347656 343.636719 522.039062 345.6875 520.988281 C 348.273438 519.671875 350.746094 519.179688 353.742188 519.386719 C 357.945312 519.675781 358.066406 519.609375 358.335938 516.871094 C 358.566406 514.511719 359.339844 513.726562 363.117188 511.992188 C 368.777344 509.394531 369.441406 507.765625 366.339844 504.082031 C 364.324219 501.683594 364.015625 500.613281 364.492188 497.636719 C 365.496094 491.363281 360.726562 485.542969 350.601562 480.671875 C 347 478.9375 343.253906 476.640625 342.277344 475.5625 C 340.691406 473.808594 340.621094 473.15625 341.617188 469.445312 C 343.246094 463.34375 343.023438 461.695312 340.402344 460.503906 C 338.65625 459.707031 337.492188 459.710938 335.710938 460.523438 C 331.859375 462.277344 328.664062 461.789062 321.480469 458.347656 C 314.09375 454.808594 311.050781 454.34375 309.277344 456.480469 M 438.914062 471.414062 C 433.839844 473.992188 431.691406 474.605469 429.15625 474.210938 C 416.9375 472.300781 418.308594 472.054688 413.269531 477.039062 C 410.742188 479.539062 406.09375 482.835938 402.9375 484.371094 C 398.289062 486.628906 397.007812 487.746094 396.183594 490.261719 C 394.625 495.03125 391.457031 497.644531 384.691406 499.746094 C 379.90625 501.234375 377.273438 501.527344 373.058594 501.046875 L 367.609375 500.425781 L 369.628906 503.160156 C 372.945312 507.644531 369.925781 513.542969 363.484375 515.160156 C 362.019531 515.527344 361.3125 516.378906 361.3125 517.78125 C 361.3125 521.300781 358.292969 523.21875 353.917969 522.480469 C 350.976562 521.984375 349.277344 522.28125 346.34375 523.808594 C 344.265625 524.894531 340.503906 526.222656 337.980469 526.761719 C 334.335938 527.542969 333.105469 528.3125 331.976562 530.496094 C 330.140625 534.046875 325.75 536.675781 320.453125 537.398438 C 318.136719 537.714844 314.984375 538.878906 313.453125 539.980469 C 311.089844 541.683594 309.390625 541.988281 302.300781 541.988281 C 297.699219 541.988281 292.386719 541.660156 290.492188 541.257812 C 287.4375 540.609375 286.882812 540.789062 285.523438 542.863281 C 284.195312 544.886719 284.148438 545.792969 285.152344 549.71875 C 286.710938 555.804688 285.898438 558.332031 281.652344 560.578125 C 277.714844 562.660156 276.859375 565.199219 278.644531 569.507812 C 279.71875 572.105469 280.972656 572.753906 286.003906 573.328125 C 287.359375 573.480469 288.875 574.621094 289.707031 576.113281 C 290.988281 578.402344 290.972656 578.890625 289.507812 581.367188 C 287.289062 585.121094 287.445312 585.507812 290.914062 584.800781 C 300.171875 582.917969 299.410156 582.707031 306.417969 589.054688 C 314.527344 596.402344 315.171875 598.5 311.269531 604.78125 C 308.738281 608.851562 308.585938 609.480469 309.847656 610.742188 C 312.097656 612.992188 313.507812 612.449219 318.132812 607.566406 C 323.722656 601.664062 327.519531 599.929688 336.679688 599.09375 C 340.773438 598.71875 345.617188 597.695312 347.449219 596.820312 C 351.257812 595 351.273438 596.917969 347.277344 575.910156 C 343.542969 556.277344 343.824219 553.082031 349.949219 545.707031 C 354.921875 539.71875 360.085938 538.0625 362.59375 541.648438 C 364.496094 544.359375 366.320312 543.367188 367.660156 538.898438 C 368.683594 535.484375 369.390625 534.859375 375.503906 531.964844 C 379.199219 530.210938 383.269531 528.449219 384.546875 528.046875 C 390.101562 526.292969 393.558594 523.179688 394.621094 518.964844 C 395.859375 514.039062 400.648438 509.316406 409.757812 504.027344 C 418.671875 498.851562 449.898438 468.097656 446.222656 468.109375 C 445.78125 468.109375 442.492188 469.597656 438.914062 471.414062 M 285.019531 489.121094 C 284.335938 489.945312 280.800781 493.050781 277.160156 496.023438 C 272.652344 499.710938 270.273438 502.378906 269.691406 504.40625 C 268.320312 509.183594 266.0625 510.046875 260.015625 508.101562 C 257.203125 507.195312 254.375 506.65625 253.726562 506.902344 C 253.082031 507.148438 252.085938 509.210938 251.511719 511.488281 C 250.246094 516.507812 248.230469 517.9375 241.207031 518.785156 C 238.277344 519.140625 233.363281 520.621094 230.296875 522.070312 L 224.714844 524.710938 L 225.304688 531.691406 C 225.886719 538.574219 225.855469 538.707031 223.105469 541.277344 L 220.316406 543.882812 L 222.042969 547.105469 C 224.375 551.453125 224.214844 555.28125 221.484375 560.410156 L 219.203125 564.707031 L 224.550781 575.1875 C 229.425781 584.75 233.964844 598.71875 234.003906 604.300781 C 234.015625 605.511719 235.574219 606.972656 238.683594 608.6875 C 241.859375 610.4375 244.207031 612.664062 246.039062 615.65625 C 250.4375 622.851562 252.566406 625.140625 257.578125 628.050781 C 260.195312 629.574219 263.425781 631.671875 264.753906 632.714844 C 269.640625 636.554688 284.9375 634.066406 291.425781 628.371094 L 293.933594 626.167969 L 291.339844 621.410156 C 288.746094 616.664062 288.746094 616.644531 290.410156 613.242188 C 292.457031 609.054688 297.066406 606.582031 302.824219 606.582031 C 306.808594 606.578125 307.195312 606.351562 309.160156 602.859375 C 311.671875 598.386719 311.183594 596.1875 307.117188 593.671875 C 305.472656 592.660156 303.183594 590.546875 302.023438 588.980469 C 299.648438 585.765625 297.988281 585.507812 293.03125 587.578125 C 289.902344 588.882812 289.367188 588.882812 287.339844 587.554688 C 284.777344 585.875 284.503906 583.691406 286.5 580.839844 C 288.441406 578.070312 287.351562 575.910156 284.015625 575.910156 C 278.535156 575.910156 274.882812 571.6875 274.882812 565.351562 C 274.882812 562.179688 276.890625 559.742188 281.941406 556.769531 C 283.542969 555.828125 283.578125 555.390625 282.4375 550.933594 C 281.757812 548.28125 281.457031 545.09375 281.773438 543.84375 C 282.582031 540.617188 285.945312 537.808594 289 537.808594 C 292.367188 537.808594 292.429688 535.722656 289.199219 530.972656 C 286.972656 527.695312 286.8125 526.789062 287.109375 519.300781 C 287.386719 512.304688 287.785156 510.644531 289.984375 507.320312 C 292.234375 503.925781 292.542969 502.574219 292.542969 496.105469 C 292.542969 490.257812 292.238281 488.636719 291.070312 488.1875 C 288.546875 487.21875 286.3125 487.5625 285.019531 489.121094 M 208.515625 545.476562 C 210.15625 550.125 216.46875 561 217.542969 561.027344 C 218.449219 561.046875 220.980469 555.1875 220.980469 553.078125 C 220.980469 549.558594 217.933594 545.28125 214.097656 543.425781 C 211.9375 542.378906 209.488281 541.523438 208.648438 541.523438 C 207.257812 541.523438 207.246094 541.867188 208.515625 545.476562 M 345.515625 600.539062 C 343.726562 601.226562 339.78125 601.824219 336.746094 601.863281 C 329.546875 601.953125 324.332031 604.515625 319.433594 610.367188 C 314.679688 616.046875 311.15625 616.550781 306.945312 612.15625 C 303.03125 608.070312 296.269531 608.855469 293.304688 613.742188 C 291.878906 616.09375 291.925781 616.429688 294.246094 620.589844 C 296.25 624.179688 296.527344 625.421875 295.777344 627.515625 C 294.003906 632.476562 277.726562 639.09375 270.589844 637.753906 C 266.320312 636.953125 266.410156 638.976562 270.933594 645.542969 C 274.117188 650.164062 274.449219 651.242188 274.753906 657.960938 L 275.089844 665.320312 L 277.792969 664.777344 C 282.25 663.886719 284.316406 666.773438 284.070312 673.550781 C 283.90625 678.117188 284.222656 679.460938 285.882812 681.230469 C 288.382812 683.886719 288.390625 685.144531 285.957031 690.644531 C 284.457031 694.042969 284.160156 696.011719 284.636719 699.472656 C 285.042969 702.421875 284.765625 705.546875 283.820312 708.726562 L 282.398438 713.53125 L 284.742188 714.421875 C 288.078125 715.691406 289.363281 715.550781 293.429688 713.476562 C 297.695312 711.300781 299.703125 708.65625 303.539062 700.1875 C 306.015625 694.707031 306.90625 693.652344 310.382812 692.074219 C 312.582031 691.078125 315.6875 690.253906 317.289062 690.242188 C 321.117188 690.214844 321.914062 689.074219 323.53125 681.308594 C 325.609375 671.34375 327.269531 668.066406 331.046875 666.488281 C 332.835938 665.742188 335.339844 665.128906 336.613281 665.128906 C 338.488281 665.128906 339.101562 664.476562 339.890625 661.644531 C 341.226562 656.820312 341.113281 653.707031 339.367188 647.707031 C 337.527344 641.382812 338.375 637.820312 343.726562 629.34375 C 348.625 621.585938 350.101562 616.984375 350.789062 607.328125 C 351.429688 598.261719 351.429688 598.261719 345.515625 600.539062 M 234.921875 612.644531 C 234.921875 616.589844 238.414062 625.203125 243.191406 633.042969 C 254.175781 651.070312 260.5 666.246094 264.242188 683.5625 C 265.523438 689.484375 267.5625 696.019531 268.773438 698.082031 C 271.335938 702.441406 278.386719 710.667969 279.566406 710.667969 C 281.027344 710.667969 282.296875 703.824219 281.726562 698.988281 C 281.292969 695.285156 281.605469 693.25 283.15625 689.75 L 285.140625 685.257812 L 282.867188 681.933594 C 280.972656 679.160156 280.679688 677.867188 281.109375 674.195312 C 281.722656 669.011719 280.542969 667.050781 277.195312 667.691406 C 273.339844 668.429688 272.09375 666.519531 272.09375 659.871094 C 272.09375 653.640625 270.90625 650.136719 266.976562 644.777344 C 265.703125 643.039062 264.660156 640.449219 264.660156 639.015625 C 264.660156 636.207031 262.363281 634.109375 254.15625 629.433594 C 250.890625 627.574219 248.605469 625.195312 245.660156 620.597656 C 241.910156 614.746094 237.617188 610.296875 235.726562 610.296875 C 235.285156 610.296875 234.921875 611.351562 234.921875 612.644531 " fill-opacity="1" fill-rule="evenodd"/></svg>